# xmcd CD database file
#
# Track frame offsets:
#	150
#	21108
#	41610
#	61756
#	81208
#	101681
#	132913
#	153340
#	171906
#	199681
#
# Disc length: 2862 seconds
#
# Revision: 0
# Processed by: cddbd v1.5.1PL0 Copyright (c) Steve Scherf et al.
# Submitted via: CDex 1.51
#
DISCID=7b0b2c0a
DTITLE=Corey Stevens - Road to Zen - Not Final Mixes
DYEAR=1997
DGENRE=Blues
TTITLE0=Only One For You
TTITLE1=Too Much Fun?
TTITLE2=Lessions of Love
TTITLE3=My Neighboorhood
TTITLE4=Take it Back
TTITLE5=Road to Zen
TTITLE6=One More Time
TTITLE7=Big House Blues
TTITLE8=Blues Are Here To Stay
TTITLE9=Charles Bronson Vibe
EXTD=YEAR: 1997
EXTT0=
EXTT1=
EXTT2=
EXTT3=
EXTT4=
EXTT5=
EXTT6=
EXTT7=
EXTT8=
EXTT9=
PLAYORDER=
